# xmcd CD database file
# Copyright (C) 1997 Ti Kan
#
# Track frame offsets:
#  150
#  15818
#  29785
#  48200
#  62015
#  74110
#  88125
#  105348
#  128570
#  140940
#  159765
#  176020
#  186665
#
# Disc length: 2792 seconds
#
# Revision: 1
# Processed by: cddbd v1.4b41PL1 Copyright (c) Steve Scherf et al.
# Submitted via: CDWizzard Release:4.32
#
DISCID=b50ae60d
DTITLE=Le Rue - Swamp Rat Boogie
DYEAR=1900
DGENRE=
TTITLE0=Mardi Gras
TTITLE1=Hey Catin
TTITLE2=Highway of Pain
TTITLE3=Fais Do Do
TTITLE4=Uncle Abel
TTITLE5=Scaredy Cat Boogie
TTITLE6=Rock 'n' Roll Cajun
TTITLE7=Sunman
TTITLE8=Catfish Dance
TTITLE9=Red Hot Boudin
TTITLE10=Hot Rod Lincoln
TTITLE11=You Got Some (But you ain't Getting No More)
TTITLE12=Hey Joe
EXTD=
EXTT0=
EXTT1=
EXTT2=
EXTT3=
EXTT4=
EXTT5=
EXTT6=
EXTT7=
EXTT8=
EXTT9=
EXTT10=
EXTT11=
EXTT12=
PLAYORDER=
